HIERARCHY
ROOT pelvis
{
  OFFSET 0 100 0
  CHANNELS 6 Xposition Yposition Zposition Zrotation Xrotation Yrotation
  JOINT pelvis_right_femur
  {
    OFFSET -10.78128 -3.44521 -0.5502486
    CHANNELS 3 Zrotation Xrotation Yrotation
    JOINT right_femur_tibia
    {
      OFFSET -0.8047443 -44.0398 -0.1307829
      CHANNELS 3 Zrotation Xrotation Yrotation
      JOINT right_tibia_foot
      {
        OFFSET 3.006224 -47.83518 -5
        CHANNELS 3 Zrotation Xrotation Yrotation
        End Site
        {
          OFFSET 0 -5 15
        }
      }
    }
  }
  JOINT pelvis_left_femur
  {
    OFFSET 10.78128 -3.44521 -0.5502486
    CHANNELS 3 Zrotation Xrotation Yrotation
    JOINT left_femur_tibia
    {
      OFFSET 0.8047443 -44.0398 -0.1307829
      CHANNELS 3 Zrotation Xrotation Yrotation
      JOINT left_tibia_foot
      {
        OFFSET -4.370144 -48.10324 -4.275266
        CHANNELS 3 Zrotation Xrotation Yrotation
        End Site
        {
          OFFSET 0 -5 15
        }
      }
    }
  }
  JOINT pelvis_spine1
  {
    OFFSET 0 6.468898 -3.129235
    CHANNELS 3 Zrotation Xrotation Yrotation
    JOINT spine1
    {
      OFFSET 0 23.15396 4.99043
      CHANNELS 3 Zrotation Xrotation Yrotation
      JOINT spine2
      {
        OFFSET 0 20.79997 -5.064912
        CHANNELS 3 Zrotation Xrotation Yrotation
        JOINT neck
        {
          OFFSET 0 14.38658 9.616178
          CHANNELS 3 Zrotation Xrotation Yrotation
          End Site
          {
            OFFSET 0 20 0
          }
        }
      }
      JOINT right_manubrium
      {
        OFFSET -5.722621 16.35077 3.967754
        CHANNELS 3 Zrotation Xrotation Yrotation
        JOINT right_clavicle
        {
          OFFSET -13.16364 1.694482 -4.693211
          CHANNELS 3 Zrotation Xrotation Yrotation
          JOINT right_humerus
          {
            OFFSET -28.5034 -0.3100689 -2.792744
            CHANNELS 3 Zrotation Xrotation Yrotation
            JOINT right_radius
            {
              OFFSET -25.15693 0.02248979 -1.271978
              CHANNELS 3 Zrotation Xrotation Yrotation
              End Site
              {
                OFFSET -15 0 0
              }
            }
          }
        }
      }
      JOINT left_manubrium
      {
        OFFSET 5.722621 16.35077 3.967754
        CHANNELS 3 Zrotation Xrotation Yrotation
        JOINT left_clavicle
        {
          OFFSET 13.16364 1.694482 -4.693211
          CHANNELS 3 Zrotation Xrotation Yrotation
          JOINT left_humerus
          {
            OFFSET 29.39168 -1.063119 -2.237045
            CHANNELS 3 Zrotation Xrotation Yrotation
            JOINT left_radius
            {
              OFFSET 24.59957 -0.9528479 0.9047498
              CHANNELS 3 Zrotation Xrotation Yrotation
              End Site
              {
                OFFSET 15 -0 -0
              }
            }
          }
        }
      }
    }
  }
}
MOTION
Frames: 23
Frame Time: 0.0416666666667
0 103.5113 0 2.041529 -0.343886 -0.07317762 2.845134 -13.23335 12.33607 -0 41.21726 -0 -6.404418 -19.8642 -3.154109 -8.02494 9.146298 -24.59545 -0 4.734477 -0 16.84284 -11.63627 31.02834 -4.268674 -5.470082 5.890801 2.372297 10.48339 -7.5216 1.698733 22.29049 5.365087 2.01112 -24.9775 9.421051 6.799294 -21.22997 11.6551 85.94006 38.44973 -18.39756 -0 0 16.92293 -4.305473 7.258445 3.030837 5.179028 -18.98836 -1.396967 -92.40857 21.52464 21.33264 0 0 -13.90953 16.58442 15.36119 -4.309502
0.2785758 103.6186 1.448226 1.449342 -0.4060499 -0.05692596 3.114944 -16.25933 10.87141 -0 41.40159 -0 -6.615848 -16.6836 -2.79955 -7.525708 9.398483 -23.41277 -0 4.909159 -0 15.4165 -12.70047 29.39246 -3.888478 -4.76327 5.355196 2.271294 10.63576 -7.570752 1.603938 21.98828 5.993205 2.476014 -24.74426 9.534396 6.66228 -20.74331 11.7558 85.94359 37.51875 -18.2757 -0 0 16.44236 -6.439295 8.271226 3.97845 5.652599 -19.66224 -1.592794 -91.49563 20.54769 20.06968 0 0 -14.59518 16.77081 15.03473 -4.702506
0.5910299 103.5132 4.126771 -0.7167526 -0.7606508 0.1293469 4.476048 -24.64587 6.180261 -0 36.57611 -0 -7.382253 -6.410977 -2.320101 -5.706521 11.96414 -18.8673 -0 7.2707 -0 8.049534 -18.32189 23.32232 -2.494052 -2.273271 3.250598 2.679965 10.51592 -8.002657 1.338899 21.74331 7.208033 3.261863 -25.56669 9.615472 5.331213 -19.38694 11.82826 86.9321 32.36349 -19.37972 -0 0 13.0929 -11.9085 10.08452 6.982455 6.135775 -21.24165 -2.652524 -91.49637 23.11725 19.23717 0 0 -16.76442 11.46028 16.61824 1.396084
0.8930273 103.2468 7.191378 -1.232278 -0.02826074 0.379859 5.048164 -27.81529 5.234412 -0 31.829 -0 -7.279862 -5.006144 -2.217297 -5.311865 12.60795 -17.76111 -0 7.920152 -0 5.912164 -20.15105 21.53546 -2.205112 -1.719972 2.99295 2.903048 10.15043 -8.20626 1.360502 21.28788 7.500702 3.53131 -25.86138 9.688806 5.072241 -18.80123 11.70675 87.01344 31.65242 -19.86716 -0 0 12.5604 -12.5437 10.45193 7.265123 6.670341 -21.7134 -2.382054 -91.27347 23.46557 18.43313 0 0 -17.81096 10.4908 16.53697 2.330588
1.169391 102.7237 10.69961 -1.584951 0.9095913 0.7010088 5.608118 -30.88321 4.336766 -0 25.44152 -0 -7.033649 -3.781916 -2.090105 -5.046174 13.33917 -16.67626 -0 8.737739 -0 3.676217 -22.09451 19.63222 -2.019474 -1.274951 2.877025 3.126495 9.701192 -8.367541 1.440497 20.74983 7.700012 3.761325 -26.20032 9.754017 4.771203 -18.13924 11.54354 87.19364 30.94136 -20.53416 -0 0 11.92437 -12.91325 10.79823 7.420662 7.320433 -22.20186 -1.974382 -90.96868 23.79321 17.39753 0 0 -19.17471 9.617706 16.34925 3.119471
1.417197 101.9171 14.68012 -1.64283 1.220257 1.094503 5.563082 -32.65745 3.096704 -0 20.12571 -0 -6.731785 -2.115941 -2.014902 -4.952164 14.18674 -15.46076 -0 9.406964 -0 1.76719 -23.42064 17.79465 -1.914315 -0.9440016 2.718103 3.189803 9.483221 -8.409361 1.487645 20.4918 7.80835 3.833474 -26.20297 9.72881 4.289191 -17.55628 11.43852 87.72098 29.75749 -21.2228 -0 0 10.83031 -13.86102 11.23924 7.925696 7.744505 -22.67425 -1.987581 -90.27649 23.86429 16.04791 0 0 -20.75554 8.927039 16.08078 3.758233
1.632716 100.8435 19.24215 -1.464487 1.084988 1.586141 5.051305 -33.48768 1.496398 -0 14.97511 -0 -6.262065 -0.07491413 -2.076379 -4.992283 15.28252 -13.95549 -0 10.19788 -0 -0.0781648 -24.28314 15.80344 -1.828048 -0.7222139 2.531843 3.15356 9.418018 -8.410409 1.486566 20.43362 7.842325 3.743687 -25.92882 9.607726 3.590108 -16.98633 11.36017 88.64125 28.10022 -22.11185 -0 0 9.20819 -15.32691 11.79485 8.725825 7.98932 -23.1818 -2.359768 -89.18154 23.75268 14.33371 0 0 -22.8347 8.215818 15.65765 4.492116
1.819574 99.56736 24.46552 -1.084578 0.6753937 2.184592 4.340038 -33.27157 -0.08462751 -0 10.19994 -0 -5.58053 1.893616 -2.326512 -5.168395 16.46981 -12.3267 -0 11.41466 -0 -1.602885 -24.46122 13.92309 -1.734364 -0.7309357 2.414791 3.0489 9.489139 -8.41616 1.426041 20.50266 7.790902 3.495919 -25.44542 9.394853 2.761462 -16.49443 11.30817 89.85474 26.24477 -23.18872 -0 0 7.30814 -16.95893 12.37177 9.610933 8.071572 -23.68366 -2.938906 -87.8277 23.34488 12.48048 0 0 -25.29186 7.658225 15.02259 5.130287
1.985859 98.21701 30.42696 -0.5947953 0.1008868 2.867682 3.7568 -31.92195 -1.281627 -0 6.199454 -0 -4.674476 3.620772 -2.824638 -5.418043 17.59739 -10.63389 -0 13.68671 -0 -2.660358 -23.6336 12.30251 -1.542968 -1.08281 2.418625 2.904819 9.7406 -8.493235 1.275802 20.61743 7.666778 3.105163 -24.81033 9.076015 1.871038 -16.15111 11.30622 91.30635 24.3333 -24.48495 -0 0 5.319575 -18.58114 12.96368 10.47087 7.977647 -24.17948 -3.628813 -86.35632 22.52058 10.7613 0 0 -28.02911 7.332993 14.10756 5.610611
2.146497 97.03952 37.1161 -0.2564041 -0.4929787 3.542903 3.793607 -29.49273 -1.566038 -0 4.118957 -0 -3.73443 4.901185 -3.538294 -5.530029 18.25146 -9.091312 -0 17.99459 -0 -3.107785 -21.31197 11.16622 -1.077964 -1.85449 2.572587 2.775126 10.27111 -8.734026 1.000794 20.63427 7.52473 2.667128 -24.17958 8.642867 1.120153 -16.10934 11.42059 92.75597 22.6776 -25.90304 -0 0 3.725733 -19.94834 13.57379 11.17294 7.661293 -24.64552 -4.282084 -85.1386 21.24679 9.820211 0 0 -30.53755 7.281807 12.93654 5.920278
2.321399 96.38616 44.31408 -0.4984278 -0.8869885 4.024573 4.913536 -26.40734 -0.5621484 -0 5.170943 -0 -3.280886 5.529882 -4.157012 -5.119311 17.61182 -8.087369 -0 25.39872 -0 -3.175994 -17.16883 10.54719 -0.1198497 -2.893472 2.874687 2.730814 11.14997 -9.181701 0.6094857 20.34827 7.463267 2.408506 -23.85966 8.109373 0.8800971 -16.54989 11.74786 93.66547 21.80141 -27.10197 -0 0 3.341341 -20.80094 14.21245 11.63514 7.066604 -25.00054 -4.717282 -84.79 19.85997 10.61288 0 0 -31.79437 7.285322 11.73682 6.337281
2.543994 96.53028 51.5209 -1.503587 -0.8522182 4.143964 6.901147 -23.26958 1.327295 -0 9.011256 -0 -4.029472 5.098308 -4.01094 -3.987216 14.58416 -8.009376 -0 35.66393 -0 -3.634434 -11.81086 10.0356 1.272208 -3.570616 3.324385 2.773246 12.13704 -9.627328 0.2240866 19.73421 7.550944 2.595404 -24.15379 7.563989 1.542815 -17.44746 12.30305 93.33085 22.48126 -27.4243 -0 0 4.827023 -20.93228 14.81036 11.857 6.161084 -25.00415 -4.839157 -85.8361 19.2783 13.69562 0 0 -30.71784 6.751656 10.98087 7.526554
2.859551 97.42593 58.19803 -2.56624 -0.3423614 3.965204 8.411054 -20.09996 2.778593 -0 12.66312 -0 -6.161209 2.817728 -2.74868 -2.774657 8.851597 -8.745718 -0 46.26342 -0 -4.970208 -7.11947 9.091917 2.346434 -3.127792 3.973456 2.77398 12.48525 -9.582205 0.03333277 19.30656 7.683397 3.199455 -24.92293 7.167557 2.994453 -18.24017 12.81908 91.65558 25.36351 -26.34628 -0 0 7.46364 -20.03757 15.0417 11.64842 5.075647 -24.35775 -4.624013 -88.00251 20.33548 17.96529 0 0 -27.53277 5.405371 11.0325 9.648599
3.257304 98.74592 64.16882 -2.699004 0.2182928 3.688223 8.346556 -16.19302 2.904015 -0 13.54939 -0 -8.843705 -1.292858 -1.190553 -2.354321 1.698656 -9.61667 -0 54.37912 -0 -6.448674 -4.648785 8.065908 2.266987 -1.729236 4.818451 2.634997 11.77815 -8.815977 0.1032504 19.71694 7.60583 3.818848 -25.44988 6.929743 4.393336 -18.31481 12.92777 89.49188 29.65892 -24.06022 -0 0 9.452931 -18.08785 14.47935 10.80603 4.220087 -23.22796 -4.006294 -90.17358 22.53395 21.15764 0 0 -23.90273 4.091512 11.78144 11.42817
3.650932 100.0881 69.58357 -1.919973 0.2145228 3.41454 7.223337 -11.21552 2.123723 -0 12.04336 -0 -10.89611 -5.539946 -0.2219149 -2.481156 -5.517154 -9.893059 -0 58.56167 -0 -7.187267 -4.07318 7.915395 1.295406 -0.3176422 5.721867 2.324715 10.75858 -7.653446 0.3197646 20.78971 7.262066 4.151614 -25.15166 6.681565 5.024659 -18.01121 12.71733 87.52655 33.16495 -21.18906 -0 0 10.41037 -16.47394 13.47936 10.07183 3.928898 -22.2458 -3.226447 -91.46352 24.40202 22.39787 0 0 -21.27691 3.583541 12.69257 11.9517
3.975567 101.1093 74.63656 -0.9046125 -0.3604637 3.201081 5.995357 -5.804141 1.129067 -0 9.479969 -0 -11.7415 -8.629791 0.2855573 -2.316483 -12.35397 -9.254999 -0 58.15138 -0 -7.120659 -4.257699 8.797679 0.2534978 0.567633 6.509544 1.831318 10.22876 -6.517963 0.518693 21.84103 6.893947 4.203859 -24.22441 6.426706 4.906023 -18.04151 12.5255 85.80925 34.85791 -18.26266 -0 0 11.2165 -16.68039 13.07625 10.3042 4.148565 -21.76936 -2.664473 -91.78149 25.17745 22.44935 0 0 -20.18478 3.686162 13.261 11.73835
4.228033 101.5732 79.47426 -0.2040443 -1.153216 3.02669 5.232419 -0.6815416 0.3319863 -0 6.784079 -0 -11.49503 -10.75827 0.6345448 -1.320001 -18.50201 -7.772831 -0 53.30445 -0 -6.462307 -4.508612 10.39972 -0.3874608 0.9185811 7.004155 1.255422 10.27057 -5.616887 0.657699 22.50225 6.618039 4.001348 -23.19194 6.298128 4.316639 -18.66641 12.4607 84.20644 35.03651 -15.41943 -0 0 12.43865 -18.68459 13.70722 11.54539 4.58645 -21.63813 -2.391068 -91.50451 25.10194 22.14629 0 0 -20.20125 3.91684 13.43664 11.43729
4.449638 101.3623 84.22095 -0.05465805 -1.950706 2.777089 5.155352 4.003758 -0.01548387 -0 4.504936 -0 -10.37086 -12.76936 0.8079083 0.5388408 -23.53228 -5.725417 -0 44.95894 -0 -5.366037 -4.600291 12.48458 -0.5266212 0.8749972 7.146468 0.7605282 10.59591 -4.989169 0.815498 22.73849 6.304791 3.462629 -22.36487 6.370776 3.421418 -19.86723 12.43549 82.6663 33.93508 -12.519 -0 0 14.3204 -21.52689 14.97819 13.43719 4.890973 -21.43468 -2.291987 -91.17173 24.68586 22.0569 0 0 -20.27074 3.84192 13.35998 11.40517
4.709947 100.4874 89.02574 -0.3558021 -2.663461 2.346135 5.528467 8.473486 0.1053527 -0 3.022236 -0 -8.522633 -15.27962 0.719966 2.723451 -27.07515 -3.618992 -0 34.56053 -0 -4.051981 -4.576044 14.74488 -0.3327796 0.5665388 7.059682 0.4567027 10.84435 -4.592181 1.048547 22.6762 5.84571 2.584695 -21.7545 6.629418 2.338016 -21.42859 12.29785 81.30004 31.76194 -9.550001 -0 0 16.81157 -24.20756 16.19227 15.52736 4.855042 -20.82038 -2.21669 -91.18072 24.27861 22.49298 0 0 -19.44899 3.230687 13.12125 11.78922
5.090292 99.09849 94.08918 -0.7962202 -3.195187 1.713688 5.777339 12.83079 0.45758 -0 2.839838 -0 -6.323723 -18.12675 0.4913485 4.340725 -28.9614 -2.187816 -0 23.93294 -0 -2.912389 -4.619119 16.80573 -0.1219502 0.114956 6.914418 0.3326344 10.70763 -4.319697 1.328606 22.52668 5.346018 1.628773 -21.21568 6.994531 1.289524 -22.85819 11.91539 80.16383 29.21488 -6.687632 -0 0 19.41705 -26.10118 16.74158 17.33589 4.552716 -19.69197 -2.006124 -91.62345 24.01567 23.37348 0 0 -17.34401 2.197451 12.80273 12.48173
5.662778 97.48491 99.62441 -1.025654 -3.454635 0.9461243 5.34261 16.8081 0.760834 -0 4.599187 -0 -4.448476 -20.15821 0.4039877 4.567776 -29.26237 -2.164972 -0 15.27743 -0 -2.364701 -4.925903 18.42921 -0.2023255 -0.334068 6.811988 0.2503309 10.0503 -4.007245 1.610343 22.49909 5.056471 1.078508 -20.61844 7.35719 0.599595 -23.51723 11.25512 79.12539 27.40131 -4.142518 -0 0 21.39501 -26.97918 16.23993 18.39909 4.263775 -18.1631 -1.574192 -92.35146 23.86633 24.2658 0 0 -14.05816 1.162596 12.5315 13.08538
6.459885 96.01453 105.7588 -0.7893651 -3.481355 0.1575065 4.01708 19.85883 0.9308404 -0 8.725436 -0 -3.54593 -19.62817 0.6248192 3.162162 -28.25603 -3.737536 -0 10.59946 -0 -2.526362 -5.577019 19.5811 -0.7492665 -0.6403651 6.782585 0.0258727 9.069524 -3.529167 1.885247 22.6705 5.148884 1.332492 -19.95012 7.594233 0.5086706 -23.03838 10.45706 78.13868 27.13267 -2.179198 -0 0 22.20823 -26.99496 14.67369 18.45936 4.239124 -16.56177 -1.045451 -93.08497 23.69578 24.68516 0 0 -10.16429 0.6091586 12.3904 13.13267
7.445264 94.99598 112.4477 -0.0878222 -3.500694 -0.5203937 2.16338 21.43738 1.096287 -0 15.01966 -0 -3.751726 -15.57331 1.021404 0.7510053 -26.35764 -6.105441 -0 10.41129 -0 -2.998636 -6.460104 20.28069 -1.70002 -0.7590795 6.800552 -0.391542 8.295435 -2.974461 2.134282 22.91502 5.522626 2.293405 -19.3384 7.593253 0.9505731 -21.73886 9.822974 77.57481 28.14902 -1.194153 -0 0 21.85248 -26.58224 12.56423 17.72433 4.456145 -15.39114 -0.7371416 -93.53142 23.40914 24.49942 0 0 -6.730066 0.7101985 12.2803 12.56564
